<svg height="512" viewBox="0 0 512 512" width="512" xmlns="http://www.w3.org/2000/svg"><path d="m476 128h-116v-52a28.031 28.031 0 0 0 -28-28h-152a28.031 28.031 0 0 0 -28 28v52h-116a28.031 28.031 0 0 0 -28 28v140a8 8 0 0 0 8 8h16v132a28.031 28.031 0 0 0 28 28h392a28.031 28.031 0 0 0 28-28v-132h16a8 8 0 0 0 8-8v-140a28.031 28.031 0 0 0 -28-28zm-308-52a12.01 12.01 0 0 1 12-12h152a12.01 12.01 0 0 1 12 12v52h-16v-40a8 8 0 0 0 -8-8h-128a8 8 0 0 0 -8 8v40h-16zm144 20v32h-112v-32zm152 340a12.01 12.01 0 0 1 -12 12h-392a12.01 12.01 0 0 1 -12-12v-132h184v16a8 8 0 0 0 8 8h32a8 8 0 0 0 8-8v-16h184zm-216-124v-32h16v32zm240-24h-208v-16a8 8 0 0 0 -8-8h-32a8 8 0 0 0 -8 8v16h-208v-132a12.01 12.01 0 0 1 12-12h440a12.01 12.01 0 0 1 12 12z"/></svg>