<svg id="Capa_1" enable-background="new 0 0 531.765 531.765" height="512" viewBox="0 0 531.765 531.765" width="512" xmlns="http://www.w3.org/2000/svg"><path d="m494.891 504.761c-.6-.738-55.831-72.067-61.71-172.408h32.109v-16.618c0-64.134-52.19-116.323-116.323-116.323h-31.109c4.197-33.248 12.861-103.96 14.459-132.998.957-17.072-5.161-33.495-17.218-46.234-25.446-26.906-72.994-26.906-98.44 0-12.058 12.739-18.176 29.162-17.218 46.234 1.598 29.038 10.262 99.75 14.459 132.998h-31.109c-64.134 0-116.323 52.19-116.323 116.323v16.618h32.103c-5.901 99.933-61.119 171.688-61.72 172.441-3.96 4.982-4.739 11.814-1.964 17.559s8.585 9.412 14.962 9.412h432.059c6.394 0 12.204-3.668 14.979-9.412 2.758-5.762 1.996-12.594-1.996-17.592zm-262.28-440.198c-.422-7.854 2.483-15.514 8.195-21.551 12.95-13.664 37.195-13.664 50.145 0 5.712 6.037 8.617 13.697 8.195 21.551-1.607 28.915-10.907 104.126-14.788 134.848h-36.96c-3.88-30.716-13.18-105.92-14.787-134.848zm-49.82 168.083h166.176c40.132 0 73.692 28.594 81.417 66.471h-329.01c7.725-37.877 41.285-66.471 81.417-66.471zm232.194 265.882c-26.637-30.992-49.401-67.337-49.401-81.07-10.347 31.044-14.246 62.065-15.719 81.07h-51.255c-1.045-23.715-4.475-69.761-16.115-116.323 0 19.531-25.831 73.453-54.715 116.323h-45.755c-1.337-18.744-5.09-50.798-15.853-83.088 0 14.029-23.742 51.679-51.119 83.088h-34.046c19.364-32.4 47.342-91.868 51.167-166.176h267.408c3.826 74.309 31.803 133.777 51.167 166.176z"/><path d="m277.63 54.72c6.49 6.49 6.49 17.011 0 23.501s-17.011 6.49-23.501 0-6.49-17.011 0-23.501c6.489-6.49 17.011-6.49 23.501 0"/></svg>